<svg width="720" height="124" viewBox="0 0 720 124" fill="none" xmlns="http://www.w3.org/2000/svg">
<circle cx="8" cy="17" r="6" fill="black"/>
<circle cx="23" cy="33" r="6" fill="black"/>
<circle cx="151.5" cy="24.5" r="5.5" fill="black"/>
<circle cx="9" cy="53" r="6" fill="black"/>
<circle cx="28" cy="113" r="7" fill="black"/>
<circle cx="159" cy="40" r="7" fill="black"/>
<circle cx="99" cy="86" r="7" fill="black"/>
<circle cx="28" cy="46" r="7" fill="black"/>
<circle cx="39.5" cy="88.5" r="6.5" fill="black"/>
<circle cx="68.5" cy="98.5" r="6.5" fill="black"/>
<circle cx="69.5" cy="108.5" r="6.5" fill="black"/>
<circle cx="100.5" cy="112.5" r="7.5" fill="black"/>
<circle cx="161.5" cy="94.5" r="6.5" fill="black"/>
<circle cx="161.5" cy="85.5" r="6.5" fill="black"/>
<circle cx="161" cy="104" r="7" fill="black"/>
<circle cx="146.5" cy="57.5" r="7.5" fill="black"/>
<circle cx="126" cy="46" r="8" fill="black"/>
<circle cx="82.5" cy="112.5" r="7.5" fill="black"/>
<circle cx="135.5" cy="15.5" r="6.5" fill="black"/>
<circle cx="127.5" cy="15.5" r="6.5" fill="black"/>
<circle cx="40.5" cy="70.5" r="6.5" fill="black"/>
<circle cx="39.5" cy="61.5" r="6.5" fill="black"/>
<circle cx="9.5" cy="61.5" r="6.5" fill="black"/>
<circle cx="8" cy="70" r="8" fill="black"/>
<circle cx="38" cy="52" r="8" fill="black"/>
<circle cx="145" cy="19" r="9" fill="black"/>
<circle cx="47.5" cy="46.5" r="6.5" fill="black"/>
<circle cx="56.5" cy="46.5" r="6.5" fill="black"/>
<circle cx="34" cy="28" r="7" fill="black"/>
<circle cx="40" cy="26" r="7" fill="black"/>
<circle cx="48.5" cy="17.5" r="6.5" fill="black"/>
<circle cx="10" cy="113" r="8" fill="black"/>
<circle cx="92" cy="25" r="8" fill="black"/>
<circle cx="70" cy="63" r="8" fill="black"/>
<circle cx="40" cy="79" r="10" fill="black"/>
<circle cx="70" cy="71" r="10" fill="black"/>
<circle cx="130" cy="63" r="9" fill="black"/>
<circle cx="130.5" cy="70.5" r="6.5" fill="black"/>
<circle cx="130.5" cy="54.5" r="6.5" fill="black"/>
<circle cx="161" cy="49" r="6" fill="black"/>
<circle cx="130.5" cy="80.5" r="9.5" fill="black"/>
<circle cx="130.5" cy="108.5" r="10.5" fill="black"/>
<circle cx="161.5" cy="112.5" r="9.5" fill="black"/>
<circle cx="161.5" cy="76.5" r="10.5" fill="black"/>
<circle cx="24.5" cy="64.5" r="19.5" fill="black"/>
<circle cx="84.5" cy="97.5" r="19.5" fill="black"/>
<circle cx="124" cy="31" r="18" fill="black"/>
<circle cx="62.5" cy="31.5" r="17.5" fill="black"/>
<circle cx="94.5" cy="49.5" r="27.5" fill="black"/>
<circle cx="19" cy="113" r="5" fill="black"/>
<circle cx="69" cy="90" r="5" fill="black"/>
<circle cx="8" cy="80" r="5" fill="black"/>
<circle cx="102" cy="95" r="5" fill="black"/>
<circle cx="91" cy="113" r="5" fill="black"/>
<circle cx="131" cy="99" r="5" fill="black"/>
<circle cx="131" cy="89" r="5" fill="black"/>
<circle cx="153.5" cy="113.5" r="4.5" fill="black"/>
<circle cx="161" cy="67" r="4" fill="black"/>
<circle cx="161" cy="59" r="4" fill="black"/>
<circle cx="8.5" cy="34.5" r="4.5" fill="black"/>
<circle cx="23.5" cy="97.5" r="4.5" fill="black"/>
<circle cx="100.5" cy="76.5" r="4.5" fill="black"/>
<circle cx="8" cy="89" r="4" fill="black"/>
<circle cx="69" cy="81" r="4" fill="black"/>
<circle cx="40" cy="45" r="4" fill="black"/>
<circle cx="8.5" cy="43.5" r="3.5" fill="black"/>
<circle cx="110.5" cy="17.5" r="3.5" fill="black"/>
<circle cx="101.5" cy="22.5" r="3.5" fill="black"/>
<circle cx="56.5" cy="14.5" r="3.5" fill="black"/>
<circle cx="37" cy="113" r="3" fill="black"/>
<circle cx="39" cy="97" r="3" fill="black"/>
<circle cx="143" cy="113" r="2" fill="black"/>
<circle cx="75" cy="16" r="3" fill="black"/>
<circle cx="34" cy="46" r="3" fill="black"/>
<circle cx="39" cy="106" r="1" fill="black"/>
<circle cx="8.5" cy="97.5" r="1.5" fill="black"/>
<circle cx="83.5" cy="19.5" r="1.5" fill="black"/>
<circle cx="157.5" cy="31.5" r="1.5" fill="black"/>
<circle cx="145.5" cy="97.5" r="1.5" fill="black"/>
<circle cx="29.5" cy="36.5" r="1.5" fill="black"/>
<circle cx="39.5" cy="35" r="2" fill="black"/>
<circle cx="39.5" cy="16.5" r="2.5" fill="black"/>
<circle cx="8" cy="106" r="3" fill="black"/>
<circle cx="365" cy="99" r="2" fill="black"/>
<circle cx="386" cy="43" r="2" fill="black"/>
<circle cx="396.5" cy="18.5" r="2.5" fill="black"/>
<circle cx="395.5" cy="44.5" r="2.5" fill="black"/>
<circle cx="402.5" cy="52.5" r="2.5" fill="black"/>
<circle cx="423.5" cy="19.5" r="2.5" fill="black"/>
<circle cx="431.5" cy="17.5" r="2.5" fill="black"/>
<circle cx="451.5" cy="34.5" r="3.5" fill="black"/>
<circle cx="396" cy="107" r="1" fill="black"/>
<circle cx="364.5" cy="17.5" r="6.5" fill="black"/>
<circle cx="380.5" cy="33.5" r="6.5" fill="black"/>
<circle cx="382.5" cy="51.5" r="6.5" fill="black"/>
<circle cx="395.5" cy="53.5" r="6.5" fill="black"/>
<circle cx="395.5" cy="62.5" r="6.5" fill="black"/>
<circle cx="395.5" cy="71.5" r="6.5" fill="black"/>
<circle cx="420.5" cy="49.5" r="6.5" fill="black"/>
<circle cx="410.5" cy="51.5" r="6.5" fill="black"/>
<circle cx="429.5" cy="46.5" r="6.5" fill="black"/>
<circle cx="437.5" cy="49.5" r="6.5" fill="black"/>
<circle cx="450.5" cy="25.5" r="6.5" fill="black"/>
<circle cx="447.5" cy="48.5" r="9.5" fill="black"/>
<circle cx="395.5" cy="88.5" r="6.5" fill="black"/>
<circle cx="365" cy="71" r="8" fill="black"/>
<circle cx="396" cy="80" r="10" fill="black"/>
<circle cx="364.5" cy="53.5" r="5.5" fill="black"/>
<circle cx="396" cy="27" r="7" fill="black"/>
<circle cx="405.5" cy="24.5" r="6.5" fill="black"/>
<circle cx="391.5" cy="35.5" r="7.5" fill="black"/>
<circle cx="395.5" cy="98.5" r="2.5" fill="black"/>
<circle cx="393.5" cy="114.5" r="2.5" fill="black"/>
<circle cx="364.5" cy="106.5" r="2.5" fill="black"/>
<circle cx="379.5" cy="65.5" r="18.5" fill="black"/>
<circle cx="436.5" cy="33.5" r="17.5" fill="black"/>
<circle cx="365.5" cy="35.5" r="4.5" fill="black"/>
<circle cx="365" cy="45" r="3" fill="black"/>
<circle cx="399" cy="58" r="4" fill="black"/>
<circle cx="380.5" cy="97.5" r="4.5" fill="black"/>
<circle cx="376" cy="114" r="4" fill="black"/>
<circle cx="364.5" cy="80.5" r="5.5" fill="black"/>
<circle cx="364.5" cy="62.5" r="5.5" fill="black"/>
<circle cx="365" cy="89" r="4" fill="black"/>
<circle cx="414" cy="21" r="4" fill="black"/>
<circle cx="449.5" cy="17.5" r="7.5" fill="black"/>
<circle cx="384.5" cy="113.5" r="6.5" fill="black"/>
<circle cx="366.5" cy="113.5" r="7.5" fill="black"/>
<circle cx="200" cy="40" r="6" fill="black"/>
<circle cx="207" cy="97" r="6" fill="black"/>
<circle cx="254" cy="114" r="6" fill="black"/>
<circle cx="315.5" cy="80.5" r="6.5" fill="black"/>
<circle cx="316.5" cy="71.5" r="6.5" fill="black"/>
<circle cx="313.5" cy="113.5" r="5.5" fill="black"/>
<circle cx="316" cy="99" r="6" fill="black"/>
<circle cx="311.5" cy="112.5" r="4.5" fill="black"/>
<circle cx="286" cy="114" r="3" fill="black"/>
<circle cx="304" cy="114" r="3" fill="black"/>
<circle cx="295.5" cy="114.5" r="2.5" fill="black"/>
<circle cx="315.5" cy="88.5" r="2.5" fill="black"/>
<circle cx="271.5" cy="111.5" r="3.5" fill="black"/>
<circle cx="236" cy="115" r="5" fill="black"/>
<circle cx="257" cy="86" r="5" fill="black"/>
<circle cx="285" cy="72" r="5" fill="black"/>
<circle cx="246.5" cy="15.5" r="6.5" fill="black"/>
<circle cx="255.5" cy="16.5" r="6.5" fill="black"/>
<circle cx="214" cy="81" r="17" fill="black"/>
<circle cx="241" cy="100" r="17" fill="black"/>
<circle cx="300" cy="65" r="17" fill="black"/>
<circle cx="230" cy="53" r="10" fill="black"/>
<circle cx="316" cy="107" r="10" fill="black"/>
<circle cx="276" cy="37" r="20" fill="black"/>
<circle cx="299.5" cy="33.5" r="26.5" fill="black"/>
<circle cx="274.5" cy="94" r="19" fill="black"/>
<circle cx="263" cy="18" r="3" fill="black"/>
<circle cx="193" cy="66" r="3" fill="black"/>
<circle cx="238" cy="83" r="3" fill="black"/>
<circle cx="240.5" cy="32.5" r="4.5" fill="black"/>
<circle cx="197" cy="84" r="4" fill="black"/>
<circle cx="237.5" cy="16.5" r="4.5" fill="black"/>
<circle cx="205" cy="33" r="4" fill="black"/>
<circle cx="194" cy="75" r="2" fill="black"/>
<circle cx="195" cy="57" r="2" fill="black"/>
<circle cx="219.5" cy="110.5" r="1.5" fill="black"/>
<circle cx="214.5" cy="50.5" r="7.5" fill="black"/>
<circle cx="212" cy="106" r="7" fill="black"/>
<circle cx="225.5" cy="61.5" r="7.5" fill="black"/>
<circle cx="248.5" cy="86.5" r="7.5" fill="black"/>
<circle cx="264.5" cy="82.5" r="6.5" fill="black"/>
<circle cx="294.5" cy="83.5" r="7.5" fill="black"/>
<circle cx="283.5" cy="79.5" r="7.5" fill="black"/>
<circle cx="300" cy="98" r="7" fill="black"/>
<circle cx="236.5" cy="49.5" r="7.5" fill="black"/>
<circle cx="246.5" cy="48.5" r="6.5" fill="black"/>
<circle cx="256.5" cy="47.5" r="6.5" fill="black"/>
<circle cx="228" cy="18" r="8" fill="black"/>
<circle cx="282" cy="55" r="8" fill="black"/>
<circle cx="218.5" cy="21.5" r="9.5" fill="black"/>
<circle cx="272.5" cy="24.5" r="9.5" fill="black"/>
<circle cx="283.5" cy="17.5" r="9.5" fill="black"/>
<circle cx="196" cy="49" r="7" fill="black"/>
<circle cx="201" cy="91" r="7" fill="black"/>
<circle cx="229" cy="113" r="7" fill="black"/>
<circle cx="246" cy="117" r="7" fill="black"/>
<circle cx="594" cy="40" r="6" fill="black"/>
<circle cx="601" cy="97" r="6" fill="black"/>
<circle cx="648" cy="114" r="6" fill="black"/>
<circle cx="709.5" cy="80.5" r="6.5" fill="black"/>
<circle cx="710.5" cy="71.5" r="6.5" fill="black"/>
<circle cx="707.5" cy="113.5" r="5.5" fill="black"/>
<circle cx="710" cy="99" r="6" fill="black"/>
<circle cx="705.5" cy="112.5" r="4.5" fill="black"/>
<circle cx="680" cy="114" r="3" fill="black"/>
<circle cx="698" cy="114" r="3" fill="black"/>
<circle cx="689.5" cy="114.5" r="2.5" fill="black"/>
<circle cx="709.5" cy="88.5" r="2.5" fill="black"/>
<circle cx="665.5" cy="111.5" r="3.5" fill="black"/>
<circle cx="630" cy="115" r="5" fill="black"/>
<circle cx="651" cy="86" r="5" fill="black"/>
<circle cx="679" cy="72" r="5" fill="black"/>
<circle cx="640.5" cy="15.5" r="6.5" fill="black"/>
<circle cx="649.5" cy="16.5" r="6.5" fill="black"/>
<circle cx="608" cy="81" r="17" fill="black"/>
<circle cx="635" cy="100" r="17" fill="black"/>
<circle cx="694" cy="65" r="17" fill="black"/>
<circle cx="624" cy="53" r="10" fill="black"/>
<circle cx="710" cy="107" r="10" fill="black"/>
<circle cx="670" cy="37" r="20" fill="black"/>
<circle cx="693.5" cy="33.5" r="26.5" fill="black"/>
<circle cx="668.5" cy="94" r="19" fill="black"/>
<circle cx="657" cy="18" r="3" fill="black"/>
<circle cx="587" cy="66" r="3" fill="black"/>
<circle cx="632" cy="83" r="3" fill="black"/>
<circle cx="636" cy="32" r="4" fill="black"/>
<circle cx="591" cy="84" r="4" fill="black"/>
<circle cx="631.5" cy="16.5" r="4.5" fill="black"/>
<circle cx="599" cy="33" r="4" fill="black"/>
<circle cx="588" cy="75" r="2" fill="black"/>
<circle cx="589" cy="57" r="2" fill="black"/>
<circle cx="613.5" cy="110.5" r="1.5" fill="black"/>
<circle cx="608.5" cy="50.5" r="7.5" fill="black"/>
<circle cx="606" cy="106" r="7" fill="black"/>
<circle cx="619.5" cy="61.5" r="7.5" fill="black"/>
<circle cx="642.5" cy="86.5" r="7.5" fill="black"/>
<circle cx="658.5" cy="82.5" r="6.5" fill="black"/>
<circle cx="688.5" cy="83.5" r="7.5" fill="black"/>
<circle cx="677.5" cy="79.5" r="7.5" fill="black"/>
<circle cx="694" cy="98" r="7" fill="black"/>
<circle cx="630.5" cy="49.5" r="7.5" fill="black"/>
<circle cx="640.5" cy="48.5" r="6.5" fill="black"/>
<circle cx="650.5" cy="47.5" r="6.5" fill="black"/>
<circle cx="622" cy="18" r="8" fill="black"/>
<circle cx="676" cy="55" r="8" fill="black"/>
<circle cx="612.5" cy="21.5" r="9.5" fill="black"/>
<circle cx="666.5" cy="24.5" r="9.5" fill="black"/>
<circle cx="677.5" cy="17.5" r="9.5" fill="black"/>
<circle cx="590" cy="49" r="7" fill="black"/>
<circle cx="595" cy="91" r="7" fill="black"/>
<circle cx="623" cy="113" r="7" fill="black"/>
<circle cx="640" cy="117" r="7" fill="black"/>
<circle cx="504" cy="99" r="2" fill="black"/>
<circle cx="535" cy="36" r="2" fill="black"/>
<circle cx="535" cy="18" r="2" fill="black"/>
<circle cx="535" cy="108" r="1" fill="black"/>
<circle cx="504" cy="17" r="6" fill="black"/>
<circle cx="504" cy="54" r="6" fill="black"/>
<circle cx="535" cy="62" r="6" fill="black"/>
<circle cx="535" cy="71" r="6" fill="black"/>
<circle cx="504" cy="62" r="6" fill="black"/>
<circle cx="534.5" cy="53.5" r="6.5" fill="black"/>
<circle cx="534.5" cy="89.5" r="6.5" fill="black"/>
<circle cx="523.5" cy="113.5" r="6.5" fill="black"/>
<circle cx="505.5" cy="113.5" r="7.5" fill="black"/>
<circle cx="519.5" cy="32.5" r="6.5" fill="black"/>
<circle cx="504" cy="71" r="8" fill="black"/>
<circle cx="534.5" cy="80.5" r="9.5" fill="black"/>
<circle cx="534.5" cy="27.5" r="6.5" fill="black"/>
<circle cx="534.5" cy="44.5" r="2.5" fill="black"/>
<circle cx="534.5" cy="98.5" r="2.5" fill="black"/>
<circle cx="519.5" cy="65.5" r="18.5" fill="black"/>
<circle cx="503" cy="44" r="3" fill="black"/>
<circle cx="503.5" cy="35.5" r="4.5" fill="black"/>
<circle cx="514.5" cy="114.5" r="4.5" fill="black"/>
<circle cx="504" cy="80" r="5" fill="black"/>
<circle cx="504" cy="89" r="4" fill="black"/>
<circle cx="519.5" cy="98.5" r="4.5" fill="black"/>
<circle cx="532.5" cy="113.5" r="2.5" fill="black"/>
<circle cx="504.5" cy="107.5" r="2.5" fill="black"/>
<rect x="503" width="32" height="31" fill="black"/>
</svg>
